:SAMPLES-PER-SECOND 30
:FULLY-SPECIFIED
:DEGREES
373
root  57.0382 33.6682 -6.53755 -162.075 -55.1702 168.638
RightUpLeg  -29.6429 -0.662934 -26.999
RightLeg  55.7304 -2.35879 -4.13113
RightFoot  -27.5951 3.70083 26.7972
RightToes  0.000482159 0.542163 -0.142577
Spine  60.4766 -6.11143 11.9804
Spine1  -2.02705 -0.846586 9.25242
HEad  -71.0521 43.3607 -44.9944
LeftShoulder1  11.0377 -16.8886 -47.2338
LeftArm  3.42241 -32.5882 -48.3206
LeftForeArm  159.39 -81.7051 -105.895
LeftHand  -0.25398 0.0180481 5.50724
RightShoulder  4.63293 10.3386 27.4394
RightArm  -30.5509 3.95022 14.968
RightForeArm  22.8826 72.7231 37.9322
RightHand  -4.32962 10.862 -30.6533
LeftUpLeg  -55.8681 4.49238 -0.213234
LeftLeg  57.0821 -0.735941 -0.715242
LeftFoot  -5.47888 0.497256 -8.92187
LeftToes  1.06246e-005 4.65855e-005 -8.18502e-006
374
root  58.0931 34.3408 -7.36713 -157.302 -57.3118 166.307
RightUpLeg  -31.2848 -1.35343 -24.8702
RightLeg  54.4559 -4.31865 -6.85741
RightFoot  -27.5065 3.65658 26.6303
RightToes  0.000482159 0.542163 -0.142577
Spine  59.9747 -7.1533 13.3713
Spine1  -3.37156 -0.877132 9.27128
HEad  -71.2737 41.9477 -44.1436
LeftShoulder1  11.1995 -17.1076 -47.4182
LeftArm  2.36128 -32.7305 -50.1777
LeftForeArm  99.2674 -78.7567 -44.3796
LeftHand  -0.25398 0.0180481 5.50724
RightShoulder  4.41737 9.93362 26.8297
RightArm  -31.1895 7.52407 14.1928
RightForeArm  21.2707 72.1337 36.4105
RightHand  -4.26124 10.5481 -30.7529
LeftUpLeg  -54.5514 7.36503 -7.4141
LeftLeg  53.1969 1.37615 2.42466
LeftFoot  -8.6764 0.177619 -5.16942
LeftToes  1.06246e-005 4.65855e-005 -8.18502e-006
375
root  58.8208 35.0635 -8.15573 -152.255 -58.5381 164.212
RightUpLeg  -33.1156 -1.72475 -23.3629
RightLeg  51.8831 -6.1475 -8.71265
RightFoot  -26.3681 3.22023 25.3801
RightToes  0.000482159 0.542163 -0.142577
Spine  59.3946 -8.14833 15.3304
Spine1  -5.69174 -0.299357 8.17776
HEad  -72.0318 39.8515 -42.4205
LeftShoulder1  11.3198 -17.3568 -47.3513
LeftArm  1.93994 -32.824 -50.6147
LeftForeArm  76.6838 -68.1844 -19.5631
LeftHand  -0.25398 0.0180481 5.50724
RightShoulder  4.47975 10.0474 27.0161
RightArm  -31.281 9.5778 12.7376
RightForeArm  18.7215 71.03 33.8745
RightHand  -4.20699 10.3705 -30.7041
LeftUpLeg  -52.6755 7.43667 -11.1184
LeftLeg  46.2527 3.7295 4.59511
LeftFoot  -10.0041 0.0547881 -0.616624
LeftToes  1.06246e-005 4.65855e-005 -8.18502e-006
376
root  59.3753 35.7096 -8.94912 -148.103 -58.9384 161.81
RightUpLeg  -34.0568 -2.04532 -22.6276
RightLeg  49.6337 -7.0779 -9.18604
RightFoot  -24.6758 2.65594 23.8569
RightToes  0.000482159 0.542163 -0.142577
Spine  59.1315 -8.38045 16.452
Spine1  -7.93535 0.226679 7.62941
HEad  -74.1094 37.4939 -41.0773
LeftShoulder1  11.5425 -17.5569 -47.8321
LeftArm  2.64729 -33.4658 -49.1259
LeftForeArm  67.1435 -55.2768 -10.7058
LeftHand  -0.25398 0.0180481 5.50724
RightShoulder  4.64875 10.4811 27.2074
RightArm  -30.5791 11.7511 11.0608
RightForeArm  15.2834 68.9831 29.8907
RightHand  -4.08938 10.2475 -30.1178
LeftUpLeg  -50.9396 4.11344 -10.2067
LeftLeg  40.163 5.38151 5.26411
LeftFoot  -7.78986 0.0208508 1.08097
LeftToes  1.06246e-005 4.65855e-005 -8.18502e-006
377
root  59.8258 36.1906 -9.74671 -145.98 -58.9571 159.557
RightUpLeg  -33.2326 -2.62581 -21.9654
RightLeg  47.9848 -7.11276 -8.71096
RightFoot  -24.4298 2.47778 22.7905
RightToes  0.000482159 0.542163 -0.142577
Spine  59.144 -7.98433 16.7481
Spine1  -9.43998 0.509317 7.99635
HEad  -76.5029 35.0494 -40.4239
LeftShoulder1  11.738 -17.6195 -48.5068
LeftArm  4.61345 -33.8798 -46.5656
LeftForeArm  58.2271 -42.1078 -6.40297
LeftHand  -0.25398 0.0180481 5.50724
RightShoulder  4.69475 10.7807 26.8165
RightArm  -29.3351 14.07 10.5125
RightForeArm  12.2208 66.6403 26.2753
RightHand  -4.05014 10.3268 -29.7041
LeftUpLeg  -49.3134 0.532945 -7.22494
LeftLeg  37.1645 5.22647 4.6153
LeftFoot  -3.68864 0.120477 -1.33298
LeftToes  1.06246e-005 4.65855e-005 -8.18502e-006
378
root  60.1035 36.5148 -10.5153 -145.798 -58.7344 158.567
RightUpLeg  -31.6741 -3.27049 -20.9385
RightLeg  46.5519 -6.77876 -7.9273
RightFoot  -25.2232 2.49366 21.6624
RightToes  0.000482159 0.542163 -0.142577
Spine  58.9306 -7.65284 17.2084
Spine1  -10.0816 0.922515 7.59653
HEad  -77.8942 32.7172 -40.1445
LeftShoulder1  11.8265 -17.6254 -48.8614
LeftArm  7.55755 -32.5802 -43.4579
LeftForeArm  48.8856 -30.5867 -3.92586
LeftHand  -0.25398 0.0180481 5.50724
RightShoulder  4.68508 10.8794 26.512
RightArm  -27.6316 15.6426 11.4633
RightForeArm  10.359 64.8884 24.0787
RightHand  -4.13457 10.5396 -29.909
LeftUpLeg  -47.704 0.0774451 -5.65621
LeftLeg  36.477 4.14937 3.65126
LeftFoot  0.0787185 0.388885 -3.97396
LeftToes  1.06246e-005 4.65855e-005 -8.18502e-006
379
root  60.1959 36.7769 -11.2355 -146.443 -58.5561 158.781
RightUpLeg  -30.2549 -4.01001 -19.5922
RightLeg  45.0814 -6.2901 -7.02478
RightFoot  -25.3966 2.3646 20.3896
RightToes  0.000482159 0.542163 -0.142577
Spine  57.8072 -7.5603 18.0209
Spine1  -10.3889 1.47557 5.85439
HEad  -77.9933 31.0604 -40.0033
LeftShoulder1  11.9037 -17.6137 -49.2097
LeftArm  8.4403 -28.9029 -39.447
LeftForeArm  41.769 -21.8192 -3.27807
LeftHand  -0.25398 0.0180481 5.50724
RightShoulder  4.74664 10.846 27.0366
RightArm  -25.0999 16.7538 13.3091
RightForeArm  9.86332 63.6458 22.6379
RightHand  -4.04032 10.2434 -29.7805
LeftUpLeg  -46.2416 1.6607 -5.72786
LeftLeg  37.0566 4.52875 4.04014
LeftFoot  2.20506 0.390285 -3.40395
LeftToes  1.06246e-005 4.65855e-005 -8.18502e-006
380
root  60.1162 36.9457 -11.9382 -146.672 -58.9649 158.772
RightUpLeg  -28.7009 -5.00614 -18.3298
RightLeg  44.1326 -5.74791 -6.24663
RightFoot  -25.5197 2.2873 19.6212
RightToes  0.000482159 0.542163 -0.142577
Spine  56.0838 -7.48708 18.6907
Spine1  -10.9318 1.75396 4.59633
HEad  -77.2747 30.2703 -39.8558
LeftShoulder1  12.0351 -17.4673 -50.1007
LeftArm  1.37374 -23.3372 -34.2978
LeftForeArm  42.2139 -15.8257 -5.61281
LeftHand  -0.25398 0.0180481 5.50724
RightShoulder  4.78438 10.6332 27.8269
RightArm  -21.673 17.9061 15.8192
RightForeArm  10.6077 62.7413 21.5472
RightHand  -3.59836 9.15369 -28.5651
LeftUpLeg  -45.5485 3.13363 -6.64599
LeftLeg  39.49 5.71601 5.41359
LeftFoot  1.56903 0.159178 -1.47479
LeftToes  1.06246e-005 4.65855e-005 -8.18502e-006
381
root  59.9185 37.0575 -12.6683 -146.299 -59.9944 157.756
RightUpLeg  -26.405 -5.91308 -17.377
RightLeg  43.4704 -5.68024 -6.03946
RightFoot  -26.5063 2.38744 19.1385
RightToes  0.000482159 0.542163 -0.142577
Spine  54.5691 -7.23653 18.9333
Spine1  -11.73 1.79707 4.49402
HEad  -76.1341 29.4938 -39.4205
LeftShoulder1  12.1574 -17.2043 -51.2404
LeftArm  -3.6656 -16.8393 -29.4055
LeftForeArm  40.9152 -13.1697 -6.40588
LeftHand  -0.25398 0.0180481 5.50724
RightShoulder  4.71145 10.3256 28.0586
RightArm  -18.1836 18.4056 18.8631
RightForeArm  12.1209 62.7512 21.3865
RightHand  -3.17411 8.1519 -27.1481
LeftUpLeg  -45.2692 4.54831 -8.48668
LeftLeg  42.8364 5.66433 5.98134
LeftFoot  -0.960172 0.135869 -1.48143
LeftToes  1.06246e-005 4.65855e-005 -8.18502e-006
382
root  59.6248 37.1779 -13.4136 -146.431 -61.033 156.906
RightUpLeg  -23.5014 -6.48658 -16.4079
RightLeg  42.4503 -6.06396 -6.20482
RightFoot  -27.622 2.47774 18.496
RightToes  0.000482159 0.542163 -0.142577
Spine  53.5883 -6.87964 19.2358
Spine1  -12.0956 2.15378 4.03382
HEad  -74.6956 27.9309 -38.5925
LeftShoulder1  12.1706 -16.9845 -51.8353
LeftArm  -5.21198 -10.4729 -25.4741
LeftForeArm  37.691 -13.3145 -6.08181
LeftHand  -0.25398 0.0180481 5.50724
RightShoulder  4.61376 10.082 27.9492
RightArm  -15.4183 17.8377 21.7747
RightForeArm  13.8229 63.8582 22.4045
RightHand  -3.0755 8.02517 -26.5755
LeftUpLeg  -44.923 7.08369 -11.2663
LeftLeg  45.2854 4.38098 5.13916
LeftFoot  -3.18731 0.194675 -2.43197
LeftToes  1.06246e-005 4.65855e-005 -8.18502e-006
383
root  59.2395 37.2642 -14.113 -148.131 -61.763 157.734
RightUpLeg  -20.5806 -7.14837 -15.0124
RightLeg  41.2504 -6.04073 -5.93638
RightFoot  -27.9647 2.44831 17.9336
RightToes  0.000482159 0.542163 -0.142577
Spine  52.8183 -6.54753 20.0431
Spine1  -11.7125 2.97482 2.44712
HEad  -73.0416 26.0634 -37.6561
LeftShoulder1  12.0621 -16.8176 -51.7966
LeftArm  -6.09317 -4.53286 -22.147
LeftForeArm  34.4773 -15.015 -5.23113
LeftHand  -0.25398 0.0180481 5.50724
RightShoulder  4.56742 9.89459 28.0828
RightArm  -13.0238 17.2696 24.2625
RightForeArm  15.2736 65.1042 23.7197
RightHand  -3.09014 8.19699 -26.3746
LeftUpLeg  -44.8423 10.7151 -14.3189
LeftLeg  46.3899 3.48919 4.34173
LeftFoot  -4.22412 0.139827 -1.81934
LeftToes  1.06246e-005 4.65855e-005 -8.18502e-006
384
root  58.7822 37.2964 -14.7683 -150.618 -62.5072 159.609
RightUpLeg  -17.8323 -8.25063 -13.3428
RightLeg  40.1891 -5.50068 -5.24142
RightFoot  -27.9783 2.34464 17.2289
RightToes  0.000482159 0.542163 -0.142577
Spine  52.0843 -6.281 20.9153
Spine1  -11.0696 3.75451 0.938233
HEad  -71.2923 24.7835 -36.8913
LeftShoulder1  11.8873 -16.5947 -51.6167
LeftArm  -7.70668 1.27484 -18.9879
LeftForeArm  31.7219 -17.8011 -4.07668
LeftHand  -0.25398 0.0180481 5.50724
RightShoulder  4.56709 9.77414 28.3979
RightArm  -10.382 17.7042 26.6817
RightForeArm  16.2239 65.752 24.4479
RightHand  -2.94491 7.91238 -25.6999
LeftUpLeg  -45.1613 14.1756 -17.1861
LeftLeg  45.6851 3.39267 4.11913
LeftFoot  -5.11606 0.121479 -1.75443
LeftToes  1.06246e-005 4.65855e-005 -8.18502e-006
385
root  58.2487 37.3479 -15.4531 -152.532 -63.5004 161.016
RightUpLeg  -15.0146 -9.5809 -11.8132
RightLeg  38.9187 -5.328 -4.87141
RightFoot  -28.3846 2.2055 15.9259
RightToes  0.000482159 0.542163 -0.142577
Spine  51.4684 -5.94942 21.2175
Spine1  -10.4771 4.19182 0.355205
HEad  -69.3461 23.9786 -36.1052
LeftShoulder1  11.7132 -16.3851 -51.401
LeftArm  -10.7931 6.83123 -16.2818
LeftForeArm  31.243 -21.2297 -3.30458
LeftHand  -0.25398 0.0180481 5.50724
RightShoulder  4.64357 9.87393 28.7205
RightArm  -7.81013 18.5281 28.7374
RightForeArm  17.3901 66.3397 25.1127
RightHand  -2.73653 7.48396 -24.7228
LeftUpLeg  -44.9561 16.9861 -20.1325
LeftLeg  41.2154 2.49146 2.77509
LeftFoot  -5.91456 0.291267 -5.25706
LeftToes  1.06246e-005 4.65855e-005 -8.18502e-006
386
root  57.5883 37.3407 -16.1773 -154.592 -64.5103 162.594
RightUpLeg  -12.2834 -11.1999 -10.4552
RightLeg  38.1304 -5.09536 -4.556
RightFoot  -28.7439 2.15515 15.2688
RightToes  0.000482159 0.542163 -0.142577
Spine  50.7911 -5.36284 21.1722
Spine1  -9.60607 4.65954 0.278621
HEad  -66.7757 23.2056 -34.8956
LeftShoulder1  11.5746 -16.3473 -50.8981
LeftArm  -15.0513 11.6482 -14.7619
LeftForeArm  33.4086 -24.246 -3.40534
LeftHand  -0.25398 0.0180481 5.50724
RightShoulder  4.82401 10.1541 29.3418
RightArm  -6.08807 18.4242 29.4353
RightForeArm  19.8744 67.4439 26.4184
RightHand  -2.6362 7.39454 -24.0181
LeftUpLeg  -43.5418 20.0207 -23.2494
LeftLeg  32.5426 -0.837098 -0.145993
LeftFoot  -4.46951 0.515614 -8.14672
LeftToes  1.06246e-005 4.65855e-005 -8.18502e-006
387
root  56.8009 37.1636 -16.857 -158.652 -65.2554 166.159
RightUpLeg  -10.7751 -13.1331 -9.13864
RightLeg  40.4769 -3.37409 -3.33116
RightFoot  -26.8374 2.09147 16.7014
RightToes  0.000482159 0.542163 -0.142577
Spine  49.8881 -4.45836 21.1469
Spine1  -8.54942 5.38802 0.57206
HEad  -63.4971 22.9614 -33.3802
LeftShoulder1  11.4526 -16.3903 -50.2585
LeftArm  -18.8718 15.8038 -14.5708
LeftForeArm  34.889 -26.3371 -3.80148
LeftHand  -0.25398 0.0180481 5.50724
RightShoulder  5.03549 10.2942 30.539
RightArm  -5.49544 16.8655 28.7903
RightForeArm  23.0255 68.4058 27.5153
RightHand  -2.71249 7.73937 -24.0661
LeftUpLeg  -41.6249 23.203 -25.4096
LeftLeg  23.9817 -5.26915 -2.27566
LeftFoot  -0.111322 0.243825 -2.91876
LeftToes  1.06246e-005 4.65855e-005 -8.18502e-006
